<svg width="140" height="140" viewBox="0 0 140 140" fill="none" xmlns="http://www.w3.org/2000/svg">
<rect width="140" height="140" rx="70" fill="white"/>
<g clip-path="url(#clip0_2402_810)">
<rect width="59" height="50" transform="translate(41 45)" fill="white"/>
<path d="M81.9722 61.6667V57.5694C81.9722 56.2927 81.6755 55.0285 81.099 53.8489C80.5224 52.6694 79.6774 51.5976 78.6121 50.6948C77.5468 49.792 76.2821 49.0759 74.8902 48.5873C73.4984 48.0987 72.0066 47.8472 70.5 47.8472C68.9934 47.8472 67.5016 48.0987 66.1098 48.5873C64.7179 49.0759 63.4532 49.792 62.3879 50.6948C61.3226 51.5976 60.4776 52.6694 59.9011 53.8489C59.3245 55.0285 59.0278 56.2927 59.0278 57.5694V67.2917C59.0278 67.66 59.2004 68.0133 59.5078 68.2738C59.8152 68.5342 60.232 68.6806 60.6667 68.6806C61.1013 68.6806 61.5182 68.5342 61.8255 68.2738C62.1329 68.0133 62.3056 67.66 62.3056 67.2917V64.4444H75.4167V61.6667H62.3056V57.5694C62.3056 55.7277 63.1689 53.9613 64.7057 52.659C66.2424 51.3566 68.3267 50.625 70.5 50.625C72.6733 50.625 74.7576 51.3566 76.2944 52.659C77.8311 53.9613 78.6944 55.7277 78.6944 57.5694V67.2222C78.6944 67.5906 78.8671 67.9438 79.1745 68.2043C79.4818 68.4648 79.8987 68.6111 80.3333 68.6111C80.768 68.6111 81.1849 68.4648 81.4922 68.2043C81.7996 67.9438 81.9722 67.5906 81.9722 67.2222V64.4444H90.1667V89.4444H50.8333V64.4444H55.75V61.6667H47.5556V89.5694C47.5556 90.273 47.8854 90.9477 48.4724 91.4452C49.0594 91.9427 49.8556 92.2222 50.6858 92.2222H90.3142C91.1444 92.2222 91.9406 91.9427 92.5276 91.4452C93.1147 90.9477 93.4444 90.273 93.4444 89.5694V61.6667H81.9722Z" fill="#F24E1E"/>
</g>
<defs>
<clipPath id="clip0_2402_810">
<rect width="59" height="50" fill="white" transform="translate(41 45)"/>
</clipPath>
</defs>
</svg>
