<svg width="140" height="140" viewBox="0 0 140 140" fill="none" xmlns="http://www.w3.org/2000/svg">
<rect width="140" height="140" rx="70" fill="white"/>
<path d="M94.5751 59.4982C96.049 59.4982 97.4626 60.025 98.5049 60.9627C99.5471 61.9004 100.133 63.1723 100.133 64.4984V74.4989C100.133 75.825 99.5471 77.0969 98.5049 78.0346C97.4626 78.9723 96.049 79.4991 94.5751 79.4991H91.6241C90.9466 84.3326 88.332 88.7775 84.2708 91.9997C80.2096 95.2219 74.981 96.9999 69.5663 97V91.9998C73.9881 91.9998 78.2289 90.4193 81.3556 87.6061C84.4823 84.793 86.2388 80.9775 86.2388 76.999V61.9983C86.2388 58.0198 84.4823 54.2044 81.3556 51.3912C78.2289 48.578 73.9881 46.9976 69.5663 46.9976C65.1445 46.9976 60.9038 48.578 57.777 51.3912C54.6503 54.2044 52.8938 58.0198 52.8938 61.9983V79.4991H44.5575C43.0836 79.4991 41.67 78.9723 40.6278 78.0346C39.5855 77.0969 39 75.825 39 74.4989V64.4984C39 63.1723 39.5855 61.9004 40.6278 60.9627C41.67 60.025 43.0836 59.4982 44.5575 59.4982H47.5085C48.1866 54.6652 50.8016 50.2209 54.8627 46.9992C58.9239 43.7776 64.152 42 69.5663 42C74.9806 42 80.2087 43.7776 84.2699 46.9992C88.331 50.2209 90.946 54.6652 91.6241 59.4982H94.5751ZM57.7844 78.9616L60.7299 74.7214C63.3782 76.2141 66.4412 77.0036 69.5663 76.999C72.6914 77.0036 75.7544 76.2141 78.4027 74.7214L81.3482 78.9616C77.8171 80.9521 73.7332 82.005 69.5663 81.9993C65.3994 82.0052 61.3154 80.9522 57.7844 78.9616Z" fill="#F24E1E"/>
</svg>
