<svg width="140" height="140" viewBox="0 0 140 140" fill="none" xmlns="http://www.w3.org/2000/svg">
<rect width="140" height="140" rx="70" fill="white"/>
<path d="M82.9391 80.25C82.4324 80.25 81.9465 80.4388 81.5882 80.7748C81.2299 81.1108 81.0287 81.5665 81.0287 82.0417C81.0287 82.5168 81.2299 82.9726 81.5882 83.3086C81.9465 83.6446 82.4324 83.8333 82.9391 83.8333H90.5806C91.0873 83.8333 91.5732 83.6446 91.9315 83.3086C92.2898 82.9726 92.491 82.5168 92.491 82.0417C92.491 81.5665 92.2898 81.1108 91.9315 80.7748C91.5732 80.4388 91.0873 80.25 90.5806 80.25H82.9391ZM39 57.8542C39 55.2407 40.107 52.7342 42.0775 50.8862C44.048 49.0382 46.7205 48 49.5072 48H89.6254C92.4121 48 95.0847 49.0382 97.0551 50.8862C99.0256 52.7342 100.133 55.2407 100.133 57.8542V81.1458C100.133 83.7593 99.0256 86.2658 97.0551 88.1138C95.0847 89.9618 92.4121 91 89.6254 91H49.5072C46.7205 91 44.048 89.9618 42.0775 88.1138C40.107 86.2658 39 83.7593 39 81.1458V57.8542ZM49.5072 51.5833C47.7338 51.5833 46.0331 52.244 44.7792 53.42C43.5252 54.596 42.8208 56.191 42.8208 57.8542V62.3333H96.3118V57.8542C96.3118 56.191 95.6074 54.596 94.3534 53.42C93.0995 52.244 91.3988 51.5833 89.6254 51.5833H49.5072ZM96.3118 65.9167H42.8208V81.1458C42.8208 84.6073 45.8163 87.4167 49.5072 87.4167H89.6254C91.3988 87.4167 93.0995 86.756 94.3534 85.58C95.6074 84.404 96.3118 82.809 96.3118 81.1458V65.9167Z" fill="#F24E1E"/>
</svg>
