<?xml version="1.0" standalone="no"?>
<!DOCTYPE svg PUBLIC "-//W3C//DTD SVG 20010904//EN"
 "http://www.w3.org/TR/2001/REC-SVG-20010904/DTD/svg10.dtd">
<svg version="1.0" xmlns="http://www.w3.org/2000/svg"
 width="59.000000pt" height="45.000000pt" viewBox="0 0 59.000000 45.000000"
 preserveAspectRatio="xMidYMid meet">

<g transform="translate(0.000000,45.000000) scale(0.100000,-0.100000)"
fill="#000000" stroke="none">
<path d="M39 411 l-29 -29 0 -157 0 -157 29 -29 29 -29 225 0 225 0 31 26 31
26 0 160 0 160 -29 29 -29 29 -227 0 -227 0 -29 -29z m151 -27 c0 -23 -3 -25
-30 -19 -41 9 -84 -33 -78 -76 4 -25 1 -29 -19 -29 -21 0 -23 4 -23 59 0 74
18 91 97 91 50 0 53 -1 53 -26z m338 10 c19 -13 22 -24 22 -75 l0 -59 -115 0
-114 0 5 28 c8 41 -23 76 -70 76 -31 0 -36 3 -36 23 0 23 0 23 143 23 113 0
147 -3 165 -16z m-354 -70 c9 -8 16 -26 16 -40 0 -21 -5 -24 -35 -24 -29 0
-36 4 -41 25 -11 45 29 71 60 39z m110 0 c31 -30 12 -64 -36 -64 -24 0 -28 4
-28 28 0 48 34 67 64 36z m-124 -102 c0 -5 -13 -21 -30 -37 -16 -16 -30 -32
-30 -37 0 -17 26 -7 57 24 l33 32 0 -82 0 -82 -57 0 c-82 0 -93 13 -93 112 l0
78 60 0 c33 0 60 -4 60 -8z m390 -71 c0 -110 -2 -111 -187 -111 l-143 0 0 82
0 82 33 -32 c31 -31 57 -41 57 -24 0 5 -13 21 -30 37 -16 16 -30 32 -30 37 0
4 68 8 150 8 l150 0 0 -79z"/>
</g>
</svg>
